<?xml version="1.0" standalone="no"?>
<!DOCTYPE svg PUBLIC "-//W3C//DTD SVG 20010904//EN"
 "http://www.w3.org/TR/2001/REC-SVG-20010904/DTD/svg10.dtd">
<svg version="1.0" xmlns="http://www.w3.org/2000/svg"
 width="1271.000000pt" height="1280.000000pt" viewBox="0 0 1271.000000 1280.000000"
 preserveAspectRatio="xMidYMid meet">
<metadata>
Created by potrace 1.15, written by Peter Selinger 2001-2017
</metadata>
<g transform="translate(0.000000,1280.000000) scale(0.100000,-0.100000)"
fill="#000000" stroke="none">
<path d="M3300 10904 c-86 -22 -246 -106 -348 -181 -112 -84 -307 -258 -368
-330 l-45 -52 61 -41 c64 -43 69 -50 45 -70 -8 -7 -15 -16 -15 -21 0 -4 39
-35 88 -68 180 -124 357 -302 454 -458 162 -260 368 -937 621 -2038 519 -2253
682 -4015 492 -5305 -12 -85 -21 -158 -18 -162 2 -4 25 -4 52 -1 l48 5 -9 -62
c-6 -40 -6 -66 0 -72 11 -11 108 7 317 59 300 74 563 181 744 300 105 69 369
330 556 548 584 684 1591 2051 2308 3137 1000 1512 1612 2701 1757 3411 51
250 47 416 -11 532 -100 200 -137 248 -224 290 -144 68 -421 57 -685 -27 -132
-41 -392 -171 -467 -232 -1 -1 14 -35 34 -75 58 -123 83 -241 83 -395 -2 -955
-866 -2643 -2594 -5061 -199 -279 -540 -745 -582 -797 l-22 -27 -6 82 c-2 45
-10 204 -16 352 -53 1299 -297 2766 -715 4300 -233 855 -424 1364 -687 1835
-244 436 -476 642 -722 639 -39 0 -96 -7 -126 -15z"/>
</g>
</svg>
